<?xml version="1.0" encoding="UTF-8"?>
<svg version="1.1" xmlns="http://www.w3.org/2000/svg" width="73" height="54">
<path d="M0 0 C24.09 0 48.18 0 73 0 C73 17.82 73 35.64 73 54 C48.91 54 24.82 54 0 54 C0 36.18 0 18.36 0 0 Z " fill="#030100" transform="translate(0,0)"/>
<path d="M0 0 C2.54232342 -0.08152344 5.08199202 -0.14073716 7.625 -0.1875 C8.33785156 -0.21263672 9.05070312 -0.23777344 9.78515625 -0.26367188 C14.61722356 -0.33016821 17.78576993 0.38667114 22 3 C24 5 24 5 24.375 8.875 C24.30091117 12.01522643 24.13506171 12.81836528 22.1875 15.4375 C19.04338495 17.68329646 16.57440587 18.12417059 12.8125 18.0625 C10.9253125 18.0315625 10.9253125 18.0315625 9 18 C9 21.96 9 25.92 9 30 C7.02 30 5.04 30 3 30 C2.98018066 29.16227051 2.96036133 28.32454102 2.93994141 27.46142578 C2.86189388 24.35634166 2.77520365 21.25165461 2.68261719 18.14697266 C2.62545964 16.14113029 2.57831404 14.13501082 2.53125 12.12890625 C2.47324219 10.24365234 2.47324219 10.24365234 2.4140625 8.3203125 C2.3826416 7.15773926 2.3512207 5.99516602 2.31884766 4.79736328 C2.27842131 1.86343518 2.27842131 1.86343518 0 0 Z " fill="#E44500" transform="translate(11,13)"/>
<path d="M0 0 C3.81180294 -0.29896494 6.26003533 -0.42283695 9.625 1.5 C12.22099858 4.23263009 14.02788726 7.02941769 15.88671875 10.29296875 C16.89977829 12.16025719 16.89977829 12.16025719 19 13 C19.226875 12.34 19.45375 11.68 19.6875 11 C20.81222554 8.42919876 22.01513756 6.09951824 23.4375 3.6875 C23.84871094 2.99011719 24.25992188 2.29273438 24.68359375 1.57421875 C25.11800781 1.05472656 25.55242188 0.53523437 26 0 C26.99 0 27.98 0 29 0 C27.64090937 3.83140624 25.84288205 6.67843329 23.4375 9.9375 C19.19629812 16.37849539 18.92273641 22.43920557 19 30 C17.02 30 15.04 30 13 30 C13.020625 29.20078125 13.04125 28.4015625 13.0625 27.578125 C12.83869128 15.66031066 7.22352771 8.96042089 0 0 Z " fill="#E14300" transform="translate(35,13)"/>
<path d="M0 0 C6 0 6 0 7.875 1.0625 C9.66830867 4.15097604 9.42841969 6.51143969 9 10 C7.3125 12.4375 7.3125 12.4375 5 14 C3.35 14 1.7 14 0 14 C0 9.38 0 4.76 0 0 Z " fill="#130500" transform="translate(20,15)"/>
<path d="M0 0 C0.99 0 1.98 0 3 0 C1.62712658 3.69876091 -0.06355453 6.9514476 -2.125 10.3125 C-2.66382813 11.19550781 -3.20265625 12.07851563 -3.7578125 12.98828125 C-4.16773438 13.65214844 -4.57765625 14.31601562 -5 15 C-6.19921875 13.359375 -6.19921875 13.359375 -7 11 C-5.76953125 8.203125 -5.76953125 8.203125 -3.8125 5.25 C-3.17957031 4.26515625 -2.54664063 3.2803125 -1.89453125 2.265625 C-1.26933594 1.51796875 -0.64414062 0.7703125 0 0 Z " fill="#C83C00" transform="translate(61,13)"/>
</svg>
